<svg width="204" height="168" xmlns="http://www.w3.org/2000/svg" xmlns:xlink="http://www.w3.org/1999/xlink" overflow="hidden"><defs><clipPath id="clip0"><rect x="538" y="277" width="204" height="168"/></clipPath><clipPath id="clip1"><rect x="539" y="278" width="202" height="166"/></clipPath><clipPath id="clip2"><rect x="539" y="278" width="202" height="166"/></clipPath><clipPath id="clip3"><rect x="539" y="260" width="202" height="200"/></clipPath></defs><g clip-path="url(#clip0)" transform="translate(-538 -277)"><g clip-path="url(#clip1)"><g clip-path="url(#clip2)"><g clip-path="url(#clip3)"><path d="M82.5191 56.798 74.7342 48.8264 74.7342 172.73 80.8064 178.802 82.1765 180.172C82.4685 180.069 82.6666 179.796 82.6747 179.487L82.6747 59.694ZM68.5687 42.8165 60.6281 34.876 60.6281 158.748 68.5687 166.72 68.5687 42.8165ZM47.1448 21.4238C46.8773 21.5464 46.7067 21.8146 46.7089 22.1089L46.7089 144.798 54.6494 152.738 54.6494 28.8661 48.5461 22.7939ZM146.573 67.2608C146.305 66.9956 145.874 66.9956 145.607 67.2608L112.818 100.05C112.552 100.318 112.552 100.749 112.818 101.016L117.457 105.656 144.268 132.466C144.531 132.712 144.939 132.712 145.202 132.466L149.873 127.796C150.119 127.532 150.119 127.124 149.873 126.861L123.467 100.455 151.088 72.8347C151.353 72.5676 151.353 72.1366 151.088 71.8694Z" fill="#339999" transform="matrix(1.00282 0 0 1 539 260.335)"/><path d="M101.171 100.486 139.94 61.718C140.237 61.4153 140.237 60.9309 139.94 60.6281L135.394 56.0507C135.091 55.754 134.606 55.754 134.304 56.0507L90.4596 99.9259C90.1628 100.229 90.1628 100.713 90.4596 101.016L94.9748 105.562 133.089 143.645C133.392 143.942 133.876 143.942 134.179 143.645L138.725 139.099C139.022 138.796 139.022 138.312 138.725 138.009Z" fill="#339999" transform="matrix(1.00282 0 0 1 539 260.335)"/></g></g></g></g></svg>